<svg xmlns="http://www.w3.org/2000/svg" viewBox="0 0 1024 1024">
<defs>
    <linearGradient id="blueGradient" x1="0%" y1="0%" x2="100%" y2="0%">
      <stop offset="0%" stop-color="#6366F1"/>
      <stop offset="100%" stop-color="#9333EA"/>
    </linearGradient>
  </defs>
  <path fill="url(#blueGradient)" d="M0 0h1024v1024H0V0Z"/>
  <path fill="#F6F6F6" d="M0 0h1024v1024H0V0Zm145 155-13 18-2 2a148 148 0 0 0-18 90v36a30592 30592 0 0 0 0 340v3a51932 51932 0 0 1 0 116 193 193 0 0 0 5 56 120 120 0 0 0 85 84l2 1a196 196 0 0 0 61 5h37a21420 21420 0 0 0 255 0h17a111412 111412 0 0 0 194 0c38 0 73-6 102-31l2-2c25-21 37-53 40-84v-26a18661 18661 0 0 1 0-25v-18a68630 68630 0 0 0 0-343v-3a32800 32800 0 0 1 0-117c0-20-1-39-8-58l-1-3a129 129 0 0 0-83-77l-2-1a196 196 0 0 0-64-5h-36a31499 31499 0 0 0-147 0h-17a2117087 2117087 0 0 0-175 0h-3a32176 32176 0 0 1-116 0c-43-1-84 9-115 42Z"/>
  <path fill="#F5F5F6" d="m424 399 2 1c29 7 54 24 70 50 8 14 13 29 18 44a128 128 0 0 0 24 45c15 17 37 30 60 34a87 87 0 0 0 7 0h6a5043 5043 0 0 0 36 1h56a5140 5140 0 0 0 0-57c0-19-7-35-20-48a75 75 0 0 0-57-20c-18 0-34 10-46 22-11 12-16 28-21 44l-5 11h-2a89 89 0 0 1-5-8 180 180 0 0 1-21-47v-2c-2-5-2-8 0-13l3-6 2-2c4-8 10-14 16-20l3-3c15-14 35-23 55-27l3-1 24-1h4c34 0 64 13 88 37 26 28 31 65 31 101a12796 12796 0 0 0 1 75v4l-3 10c-3 3-5 3-10 3h-7a7328 7328 0 0 0-103 0c-50 0-95-12-132-48-19-19-30-44-38-69-4-15-10-28-20-39l-2-2a65 65 0 0 0-43-19c-22-1-41 4-57 19a63 63 0 0 0-19 44v2a2233 2233 0 0 0-1 23v37a10224 10224 0 0 0 80 0c15 0 29-1 43-9l2-1 14-9 2 3a249 249 0 0 0 19 27l11 11c-4 11-21 18-31 22-22 9-45 8-68 8h-10a7126 7126 0 0 1-105 1c-4-1-5-2-8-5l-1-6v-10a4650 4650 0 0 1 0-77c0-25 0-25 2-37v-2c7-31 25-57 50-75 30-19 69-25 103-16Z"/>
  <path fill="#F6F6F6" d="M394 240h2a65 65 0 0 1 43 16c13 10 21 27 23 43 2 21-4 40-18 56-9 10-19 16-32 20l-4 1c-17 4-36 1-51-8a71 71 0 0 1-31-41c-3-16-2-32 4-47l1-3c9-17 24-28 42-35 7-2 13-2 21-2Z"/>
  <path fill="#F5F5F6" d="m657 244 3 2c17 8 29 21 36 38 6 19 5 37-3 55a72 72 0 0 1-43 36c-18 5-36 2-53-6-16-9-27-24-32-42s-3-37 6-53c10-16 24-28 42-33 14-3 31-3 44 3Z"/>
  <path fill="#F4F4F6" d="M307 724c6 4 10 9 13 16l1 3c3 12 1 22-6 32-4 5-10 9-16 10-11 1-21 1-30-6-8-8-10-15-10-25s2-18 9-25c10-9 27-12 39-5Z"/>
  <path fill="#F4F5F6" d="M241 700c4 4 7 8 9 13l-13 5-3-6c-8-3-15-5-24-2l-4 6 1 10c5 4 11 5 17 7 10 3 18 6 26 14 3 6 2 16 0 23-3 6-8 10-15 13-11 4-23 4-34-1-6-3-10-7-12-13l-1-5 13-3 2 3c2 5 5 7 10 8 7 1 14 1 20-4 2-3 2-4 2-7l1-3c-1-3-3-5-6-7l-13-4c-20-7-20-7-24-15-4-6-4-14-2-21 3-7 7-11 14-14 12-4 25-3 36 3Z"/>
  <path fill="#F4F4F6" d="M462 724c7 5 11 11 12 20a195 195 0 0 1 0 26v14h-14l-1-7-2 2c-3 4-6 6-12 6l-4 1-2-1c-6 0-10-1-14-5-4-6-6-10-5-17 2-6 5-10 11-13 8-4 18-3 28-3-1-4-1-8-4-12-5-2-9-2-14-1-4 2-6 4-8 7l-4-1-3-1-4-3c4-7 8-12 16-15 7-1 18-2 24 3Z"/>
  <path fill="#F4F3F6" d="M821 724c7 5 11 11 13 20v13h-43c3 10 3 10 9 15 4 2 9 1 13 0 4-2 6-5 8-8l11 6c-3 7-7 11-13 14-9 3-21 2-29-2-7-4-11-11-13-19-3-11-1-21 5-31 8-12 26-15 39-8Z"/>
  <path fill="#F4F4F6" d="M596 723c7 3 10 9 13 15l-6 4h-3l-5 1-4-6c-5-3-10-3-15-2l-7 7c-2 7-2 16 0 23 2 4 4 5 8 7 5 1 9 1 14-2l4-7 14 3c-1 7-5 12-11 16-8 5-19 4-28 2-7-3-12-8-16-15-4-10-4-21 0-31 4-8 9-13 17-16s18-2 25 1Zm-220 1c5 4 8 9 10 15a958 958 0 0 1-8 3l-6 1-1-3-5-5h-10c-4 0-5 1-8 4-4 7-4 16-2 24 1 4 4 7 8 9 5 0 9 1 14-1l5-8a1851 1851 0 0 1 13 3c-1 7-5 11-10 16-8 5-18 4-27 3-7-2-12-7-16-13-5-9-6-21-3-30s8-15 16-19c9-4 22-4 30 1Z"/>
  <path fill="#F4F4F5" d="M732 724c5 4 9 9 11 15a958 958 0 0 1-8 3l-6 1-4-6c-5-3-10-3-15-2l-7 7c-2 7-2 17 1 24 3 4 3 4 7 6 5 1 9 1 13-1l5-8 14 3c-1 7-5 12-11 16-8 5-18 4-27 2-8-3-13-8-17-15-4-11-4-23 1-33 4-7 9-11 16-14 8-2 19-2 27 2Z"/>
  <path fill="#F3F3F6" d="M752 696h15v88h-15v-88Z"/>
  <path fill="#F5F5F5" d="M486 696h15v88h-15v-88Z"/>
  <path fill="#F5F5F6" d="M681 721v15h-5c-5 0-7 1-11 4-4 6-4 12-4 19v2a2612 2612 0 0 0-1 23h-14v-62h13l1 8 1-1c6-8 11-8 20-8Z"/>
  <path fill="url(#blueGradient)" d="M301 735c5 6 6 11 7 19-1 7-3 11-7 17-5 4-11 3-17 2-4-2-6-4-8-8-3-7-3-15-1-22 4-10 15-12 26-8Z"/>
  <path fill="#F3F3F5" d="M618 722h15v62h-15v-62Z"/>
  <path fill="#F6F6F6" d="M395 722h14v62h-14v-62Z"/>
  <path fill="url(#blueGradient)" d="M791 757h43v2l-8 1h-4l-1 2h2l3 4-5-1-1 1c-5 7-5 7-10 8-6 1-10 0-15-4-4-4-3-7-4-13Z"/>
  <path fill="url(#blueGradient)" d="m812 733 7 7 1 7h-29c1-6 2-10 7-14 5-2 9-2 14 0Z"/>
  <path fill="#F6F5F6" d="M511 745h31v11h-31v-11Z"/>
  <path fill="url(#blueGradient)" d="M452 757h7c0 5 0 7-2 11-3 5-7 6-13 7l-7-3c-2-4-3-5-2-9 4-6 11-6 17-6Z"/>
  <path fill="#F3F3F6" d="M630 696c3 3 4 4 5 8-1 4-2 5-5 8l-8 1c-4-2-5-3-6-7 0-4 1-6 3-9 3-2 7-2 11-1Z"/>
  <path fill="#F2F3F6" d="m406 696 4 4c1 5 1 7-2 11-4 3-6 3-10 2-3-2-5-3-5-7-1-3 0-6 1-8 4-3 8-3 12-2Z"/>
  <path fill="#FDFBF8" d="M486 696h15v6l-2-1v-3h-11v85h5v1h-7v-88Z"/>
  <path fill="url(#blueGradient)" d="M192 125v2l-4 1-2 1h-4l-1 3-7 4c-5 3-9 5-13 9l-7 5c-3 2-4 3-5 7h-3l-1 2-4 7h-2l-1 2c-1 4-3 8-6 11h-2l-2 5-1-2c9-21 27-38 47-50l2-1c11-6 11-6 16-6Z"/>
  <path fill="#E8EDF7" d="M471 740h2a28 28 0 0 1 1 11v5a3322 3322 0 0 1 0 28h-13l1-4v2h10l-1-42Z"/>
  <path fill="#FDFCF8" d="M618 722h12l1 2h-11v38l-2 1v-41Z"/>
  <path fill="url(#blueGradient)" d="m703 741 1 6v8c0 6 0 10 4 14l7 1 1 2 3 1-11-1c-5-5-7-8-7-15-1-12-1-12 2-16Z"/>
  <path fill="url(#blueGradient)" d="M120 199c2 7 0 17-2 24l-3-2c-1-5 0-9 2-14l1-4 2-4Z"/>
  <path fill="url(#blueGradient)" d="M114 222c3 4 2 7 2 11v3c0 4 0 8-2 12h-1c-1-9-1-17 1-26Z"/>
  <path fill="url(#blueGradient)" d="m734 761 3 1 3 3-11-2v2c-1 4-2 5-5 7l-4-1h2c3-3 3-5 4-8v-2h8Z"/>
  <path fill="url(#blueGradient)" d="M213 118c-7 5-7 5-11 6l-3-1v2l-5-1c2-3 5-4 8-5h3l8-1Z"/>
  <path fill="url(#blueGradient)" d="M140 162c0 4-2 7-4 10l-2 4-2 3h-2l-2 5-1-2 4-7 1-2 8-11Z"/>
  <path fill="url(#blueGradient)" d="m899 826 3 1-4 11-2 4-1 2-1-2 2-4 1-3 2-5v-4Z"/>
  <path fill="url(#blueGradient)" d="M819 785c-3 3-4 3-8 3l-2 1-8-1 4-4h6l8 1Z"/>
  <path fill="url(#blueGradient)" d="M595 757h2l1 3h2v3h-5v2c-1 3-1 3-4 5l1-6 1-3 2-4Z"/>
  <path fill="url(#blueGradient)" d="M459 775h1v9l-5 2-1-4 2-4 2-2 1-1Z"/>
  <path fill="url(#blueGradient)" d="m169 135 1 3-2 1-5 4c-3 2-4 2-7 2l13-10Z"/>
  <path fill="url(#blueGradient)" d="m893 844 1 2-3 6-2 3-4 3 1-5h2v-4h3l2-5Z"/>
  <path fill="url(#blueGradient)" d="m434 363 2 1c-4 5-8 7-14 9l-2-1 3-2 3-2 2-1 6-4Z"/>
  <path fill="url(#blueGradient)" d="M232 115v1l-18 2c4-4 12-3 18-3Z"/>
  <path fill="url(#blueGradient)" d="M114 222c3 4 2 5 1 10l-1 4v3h-1v-10l1-7Z"/>
  <path fill="url(#blueGradient)" d="M120 199c2 5-1 11-3 16h-1c0-6 1-11 4-16Z"/>
  <path fill="url(#blueGradient)" d="M588 735c3 1 5 3 7 6v2l4 1-4 1-2-3-2-3h-3v-4Z"/>
  <path fill="url(#blueGradient)" d="M473 114h13l-2 1-1 2v-2l-5 4v-3h-5v-2Z"/>
  <path fill="url(#blueGradient)" d="M834 743h1c2 6 2 9 0 15h-1v-15Z"/>
  <path fill="url(#blueGradient)" d="M299 433c0 4-1 4-3 7l-2 2-1 1 1-8 5-2Z"/>
  <path fill="url(#blueGradient)" d="M726 762h2c0 4 0 5-2 8l-4 2-2-1 2-1c3-2 3-4 4-8Z"/>
  <path fill="url(#blueGradient)" d="m725 737 4 4v2l3 1-4 2-3-9Z"/>
  <path fill="url(#blueGradient)" d="M126 185c2 3 0 6-1 9h-2l-2 4c1-5 2-9 5-13Z"/>
  <path fill="url(#blueGradient)" d="m740 773 3 3-7 5-2-1 6-7Z"/>
  <path fill="url(#blueGradient)" d="m310 425-5 5h-2l1-5h6Z"/>
  <path fill="url(#blueGradient)" d="m256 115-4 1v2l-3 1-3-4h10Z"/>
  <path fill="url(#blueGradient)" d="M435 463c3 1 5 3 7 6l-4 1-1-2-2-5Z"/>
  <path fill="url(#blueGradient)" d="M161 142v3l-7 4v-3l2-1 5-3Z"/>
</svg>
